<svg width="200" height="200" viewBox="0 0 200 200" fill="none" xmlns="http://www.w3.org/2000/svg">
<circle cx="100" cy="100" r="100" fill="#0077BE"/>
<path fill-rule="evenodd" clip-rule="evenodd" d="M99.7713 76.8276C96.4013 73.4311 92.1078 71.1181 87.4335 70.181C82.7592 69.2439 77.9142 69.7248 73.5111 71.5629C69.108 73.401 65.3446 76.5138 62.6969 80.5075C60.0491 84.5013 58.6358 89.1967 58.6358 94C58.6358 98.8033 60.0491 103.499 62.6969 107.492C65.3446 111.486 69.108 114.599 73.5111 116.437C77.9142 118.275 82.7592 118.756 87.4335 117.819C92.1078 116.882 96.4013 114.569 99.7713 111.172C100.675 110.261 101.901 109.75 103.18 109.75C104.458 109.75 105.684 110.261 106.588 111.172C107.492 112.083 108 113.319 108 114.608C108 115.896 107.492 117.132 106.588 118.043C101.87 122.797 95.8591 126.035 89.3152 127.347C82.7713 128.659 75.9885 127.985 69.8244 125.412C63.6604 122.838 58.3919 118.48 54.6851 112.889C50.9784 107.298 49 100.724 49 94C49 87.2756 50.9784 80.7022 54.6851 75.111C58.3919 69.5198 63.6604 65.1619 69.8244 62.5884C75.9885 60.015 82.7713 59.3414 89.3152 60.6531C95.8591 61.9647 101.87 65.2025 106.588 69.9572C107.036 70.4083 107.391 70.9438 107.633 71.5332C107.875 72.1227 108 72.7544 108 73.3924C108 74.0303 107.875 74.6621 107.633 75.2515C107.391 75.8409 107.036 76.3765 106.588 76.8276C106.141 77.2787 105.609 77.6365 105.024 77.8807C104.44 78.1248 103.813 78.2505 103.18 78.2505C102.547 78.2505 101.92 78.1248 101.335 77.8807C100.75 77.6365 100.219 77.2787 99.7713 76.8276Z" fill="white"/>
<path fill-rule="evenodd" clip-rule="evenodd" d="M98.3682 123.172C101.795 126.569 106.162 128.882 110.915 129.819C115.669 130.756 120.596 130.275 125.073 128.437C129.551 126.599 133.378 123.486 136.071 119.492C138.764 115.499 140.201 110.803 140.201 106C140.201 101.197 138.764 96.5013 136.071 92.5075C133.378 88.5138 129.551 85.401 125.073 83.5629C120.596 81.7248 115.669 81.2439 110.915 82.181C106.162 83.1181 101.795 85.4311 98.3682 88.8276C97.4489 89.7387 96.2021 90.2505 94.902 90.2505C93.6019 90.2505 92.355 89.7387 91.4358 88.8276C90.5165 87.9165 90 86.6808 90 85.3924C90 84.1039 90.5165 82.8682 91.4358 81.9571C96.2338 77.2025 102.347 73.9647 109.001 72.6531C115.656 71.3414 122.554 72.015 128.823 74.5884C135.091 77.1619 140.449 81.5198 144.218 87.111C147.988 92.7022 150 99.2756 150 106C150 112.724 147.988 119.298 144.218 124.889C140.449 130.48 135.091 134.838 128.823 137.412C122.554 139.985 115.656 140.659 109.001 139.347C102.347 138.035 96.2338 134.797 91.4358 130.043C90.9806 129.592 90.6195 129.056 90.3731 128.467C90.1268 127.877 90 127.246 90 126.608C90 125.97 90.1268 125.338 90.3731 124.749C90.6195 124.159 90.9806 123.624 91.4358 123.172C91.8909 122.721 92.4313 122.363 93.0261 122.119C93.6208 121.875 94.2582 121.75 94.902 121.75C95.5457 121.75 96.1831 121.875 96.7779 122.119C97.3726 122.363 97.913 122.721 98.3682 123.172Z" fill="white"/>
</svg>
