<svg width="200" height="200" viewBox="0 0 200 200" fill="none" xmlns="http://www.w3.org/2000/svg">
<rect width="200" height="200" fill="#0077BE"/>
<path d="M96.8686 90.3828H94.6911C94.6513 90.1011 94.5701 89.8509 94.4474 89.6321C94.3248 89.41 94.1674 89.2211 93.9751 89.0653C93.7829 88.9096 93.5608 88.7902 93.3089 88.7074C93.0604 88.6245 92.7902 88.5831 92.4986 88.5831C91.9716 88.5831 91.5125 88.714 91.1214 88.9759C90.7304 89.2344 90.4271 89.6122 90.2116 90.1094C89.9962 90.6032 89.8885 91.2031 89.8885 91.9091C89.8885 92.6349 89.9962 93.2448 90.2116 93.7386C90.4304 94.2325 90.7353 94.6054 91.1264 94.8572C91.5175 95.1091 91.9699 95.2351 92.4837 95.2351C92.772 95.2351 93.0388 95.197 93.2841 95.1207C93.5327 95.0445 93.7531 94.9335 93.9453 94.7876C94.1375 94.6385 94.2966 94.4579 94.4226 94.2457C94.5518 94.0336 94.6413 93.7917 94.6911 93.5199L96.8686 93.5298C96.8123 93.9972 96.6714 94.4479 96.446 94.8821C96.224 95.313 95.924 95.6991 95.5462 96.0405C95.1716 96.3786 94.7242 96.647 94.2038 96.8459C93.6868 97.0414 93.1018 97.1392 92.4489 97.1392C91.5407 97.1392 90.7287 96.9337 90.0128 96.5227C89.3002 96.1117 88.7367 95.5168 88.3224 94.7379C87.9115 93.959 87.706 93.0161 87.706 91.9091C87.706 90.7988 87.9148 89.8542 88.3324 89.0753C88.75 88.2964 89.3168 87.7031 90.0327 87.2955C90.7486 86.8845 91.554 86.679 92.4489 86.679C93.0388 86.679 93.5857 86.7618 94.0895 86.9276C94.5966 87.0933 95.0457 87.3352 95.4368 87.6534C95.8279 87.9683 96.1461 88.3544 96.3913 88.8118C96.6399 89.2692 96.799 89.7929 96.8686 90.3828ZM98.4123 97V86.8182H100.565V95.2251H104.93V97H98.4123ZM112.645 86.8182H114.797V93.4304C114.797 94.1728 114.62 94.8224 114.265 95.3793C113.914 95.9361 113.422 96.3703 112.789 96.6818C112.156 96.9901 111.418 97.1442 110.577 97.1442C109.731 97.1442 108.992 96.9901 108.359 96.6818C107.726 96.3703 107.234 95.9361 106.883 95.3793C106.531 94.8224 106.356 94.1728 106.356 93.4304V86.8182H108.508V93.2464C108.508 93.6342 108.593 93.9789 108.762 94.2805C108.934 94.5821 109.176 94.8191 109.488 94.9915C109.799 95.1638 110.162 95.25 110.577 95.25C110.994 95.25 111.357 95.1638 111.665 94.9915C111.977 94.8191 112.217 94.5821 112.386 94.2805C112.559 93.9789 112.645 93.6342 112.645 93.2464V86.8182ZM116.569 97V86.8182H120.645C121.394 86.8182 122.019 86.9292 122.52 87.1513C123.02 87.3733 123.396 87.6816 123.648 88.076C123.9 88.4671 124.026 88.9179 124.026 89.4283C124.026 89.826 123.946 90.1757 123.787 90.4773C123.628 90.7756 123.409 91.0208 123.131 91.2131C122.856 91.402 122.541 91.5362 122.186 91.6158V91.7152C122.574 91.7318 122.937 91.8411 123.275 92.0433C123.617 92.2455 123.893 92.5289 124.105 92.8935C124.318 93.2547 124.424 93.6856 124.424 94.1861C124.424 94.7263 124.289 95.2086 124.021 95.6328C123.756 96.0537 123.363 96.3868 122.843 96.6321C122.322 96.8774 121.681 97 120.919 97H116.569ZM118.721 95.2401H120.476C121.076 95.2401 121.514 95.1257 121.789 94.897C122.064 94.665 122.201 94.3568 122.201 93.9723C122.201 93.6906 122.133 93.442 121.998 93.2266C121.862 93.0111 121.668 92.8421 121.416 92.7195C121.167 92.5968 120.871 92.5355 120.526 92.5355H118.721V95.2401ZM118.721 91.0788H120.317C120.612 91.0788 120.874 91.0275 121.103 90.9247C121.335 90.8187 121.517 90.6695 121.65 90.4773C121.785 90.285 121.853 90.0547 121.853 89.7862C121.853 89.4183 121.722 89.1217 121.461 88.8963C121.202 88.6709 120.834 88.5582 120.357 88.5582H118.721V91.0788ZM96.8686 107.383H94.6911C94.6513 107.101 94.5701 106.851 94.4474 106.632C94.3248 106.41 94.1674 106.221 93.9751 106.065C93.7829 105.91 93.5608 105.79 93.3089 105.707C93.0604 105.625 92.7902 105.583 92.4986 105.583C91.9716 105.583 91.5125 105.714 91.1214 105.976C90.7304 106.234 90.4271 106.612 90.2116 107.109C89.9962 107.603 89.8885 108.203 89.8885 108.909C89.8885 109.635 89.9962 110.245 90.2116 110.739C90.4304 111.232 90.7353 111.605 91.1264 111.857C91.5175 112.109 91.9699 112.235 92.4837 112.235C92.772 112.235 93.0388 112.197 93.2841 112.121C93.5327 112.045 93.7531 111.933 93.9453 111.788C94.1375 111.638 94.2966 111.458 94.4226 111.246C94.5518 111.034 94.6413 110.792 94.6911 110.52L96.8686 110.53C96.8123 110.997 96.6714 111.448 96.446 111.882C96.224 112.313 95.924 112.699 95.5462 113.04C95.1716 113.379 94.7242 113.647 94.2038 113.846C93.6868 114.041 93.1018 114.139 92.4489 114.139C91.5407 114.139 90.7287 113.934 90.0128 113.523C89.3002 113.112 88.7367 112.517 88.3224 111.738C87.9115 110.959 87.706 110.016 87.706 108.909C87.706 107.799 87.9148 106.854 88.3324 106.075C88.75 105.296 89.3168 104.703 90.0327 104.295C90.7486 103.884 91.554 103.679 92.4489 103.679C93.0388 103.679 93.5857 103.762 94.0895 103.928C94.5966 104.093 95.0457 104.335 95.4368 104.653C95.8279 104.968 96.1461 105.354 96.3913 105.812C96.6399 106.269 96.799 106.793 96.8686 107.383ZM107.769 108.909C107.769 110.019 107.558 110.964 107.137 111.743C106.72 112.522 106.15 113.117 105.427 113.528C104.708 113.935 103.899 114.139 103.001 114.139C102.096 114.139 101.284 113.934 100.565 113.523C99.8458 113.112 99.2773 112.517 98.8597 111.738C98.4421 110.959 98.2333 110.016 98.2333 108.909C98.2333 107.799 98.4421 106.854 98.8597 106.075C99.2773 105.296 99.8458 104.703 100.565 104.295C101.284 103.884 102.096 103.679 103.001 103.679C103.899 103.679 104.708 103.884 105.427 104.295C106.15 104.703 106.72 105.296 107.137 106.075C107.558 106.854 107.769 107.799 107.769 108.909ZM105.586 108.909C105.586 108.19 105.479 107.583 105.263 107.089C105.051 106.596 104.751 106.221 104.363 105.966C103.975 105.711 103.521 105.583 103.001 105.583C102.481 105.583 102.027 105.711 101.639 105.966C101.251 106.221 100.949 106.596 100.734 107.089C100.522 107.583 100.416 108.19 100.416 108.909C100.416 109.628 100.522 110.235 100.734 110.729C100.949 111.223 101.251 111.597 101.639 111.852C102.027 112.107 102.481 112.235 103.001 112.235C103.521 112.235 103.975 112.107 104.363 111.852C104.751 111.597 105.051 111.223 105.263 110.729C105.479 110.235 105.586 109.628 105.586 108.909ZM117.88 103.818V114H116.02L111.591 107.592H111.516V114H109.363V103.818H111.253L115.648 110.222H115.737V103.818H117.88ZM128.175 103.818V114H126.315L121.886 107.592H121.811V114H119.658V103.818H121.548L125.942 110.222H126.032V103.818H128.175ZM129.953 114V103.818H136.814V105.593H132.106V108.019H136.461V109.794H132.106V112.225H136.834V114H129.953ZM147.509 107.383H145.332C145.292 107.101 145.211 106.851 145.088 106.632C144.965 106.41 144.808 106.221 144.616 106.065C144.424 105.91 144.201 105.79 143.95 105.707C143.701 105.625 143.431 105.583 143.139 105.583C142.612 105.583 142.153 105.714 141.762 105.976C141.371 106.234 141.068 106.612 140.852 107.109C140.637 107.603 140.529 108.203 140.529 108.909C140.529 109.635 140.637 110.245 140.852 110.739C141.071 111.232 141.376 111.605 141.767 111.857C142.158 112.109 142.611 112.235 143.124 112.235C143.413 112.235 143.679 112.197 143.925 112.121C144.173 112.045 144.394 111.933 144.586 111.788C144.778 111.638 144.937 111.458 145.063 111.246C145.192 111.034 145.282 110.792 145.332 110.52L147.509 110.53C147.453 110.997 147.312 111.448 147.087 111.882C146.865 112.313 146.565 112.699 146.187 113.04C145.812 113.379 145.365 113.647 144.844 113.846C144.327 114.041 143.742 114.139 143.089 114.139C142.181 114.139 141.369 113.934 140.653 113.523C139.941 113.112 139.377 112.517 138.963 111.738C138.552 110.959 138.347 110.016 138.347 108.909C138.347 107.799 138.555 106.854 138.973 106.075C139.391 105.296 139.957 104.703 140.673 104.295C141.389 103.884 142.195 103.679 143.089 103.679C143.679 103.679 144.226 103.762 144.73 103.928C145.237 104.093 145.686 104.335 146.077 104.653C146.469 104.968 146.787 105.354 147.032 105.812C147.281 106.269 147.44 106.793 147.509 107.383ZM148.665 105.593V103.818H157.027V105.593H153.91V114H151.782V105.593H148.665Z" fill="white"/>
<path fill-rule="evenodd" clip-rule="evenodd" d="M62.07 90.929C60.6715 89.5305 58.8896 88.578 56.9498 88.1922C55.01 87.8063 52.9993 88.0043 51.1721 88.7612C49.3448 89.5181 47.783 90.7998 46.6842 92.4443C45.5853 94.0888 44.9989 96.0222 44.9989 98C44.9989 99.9778 45.5853 101.911 46.6842 103.556C47.783 105.2 49.3448 106.482 51.1721 107.239C52.9993 107.996 55.01 108.194 56.9498 107.808C58.8896 107.422 60.6715 106.47 62.07 105.071C62.4451 104.696 62.9539 104.485 63.4845 104.485C64.015 104.485 64.5238 104.696 64.899 105.071C65.2741 105.446 65.4849 105.955 65.4849 106.486C65.4849 107.016 65.2741 107.525 64.899 107.9C62.941 109.858 60.4464 111.191 57.7307 111.731C55.015 112.271 52.2002 111.994 49.6421 110.934C47.084 109.875 44.8976 108.08 43.3593 105.778C41.821 103.476 41 100.769 41 98C41 95.2311 41.821 92.5244 43.3593 90.2222C44.8976 87.9199 47.084 86.1255 49.6421 85.0658C52.2002 84.0062 55.015 83.7288 57.7307 84.2689C60.4464 84.809 62.941 86.1422 64.899 88.1C65.0847 88.2858 65.2321 88.5063 65.3326 88.749C65.4332 88.9917 65.4849 89.2518 65.4849 89.5145C65.4849 89.7772 65.4332 90.0373 65.3326 90.28C65.2321 90.5227 65.0847 90.7433 64.899 90.929C64.7132 91.1148 64.4927 91.2621 64.25 91.3626C64.0073 91.4632 63.7472 91.5149 63.4845 91.5149C63.2218 91.5149 62.9617 91.4632 62.719 91.3626C62.4763 91.2621 62.2557 91.1148 62.07 90.929Z" fill="white"/>
<path fill-rule="evenodd" clip-rule="evenodd" d="M61.4149 110.071C62.8134 111.47 64.5953 112.422 66.5351 112.808C68.4749 113.194 70.4856 112.996 72.3128 112.239C74.1401 111.482 75.7019 110.2 76.8007 108.556C77.8995 106.911 78.486 104.978 78.486 103C78.486 101.022 77.8995 99.0888 76.8007 97.4443C75.7019 95.7998 74.1401 94.5181 72.3128 93.7612C70.4856 93.0043 68.4749 92.8063 66.5351 93.1922C64.5953 93.578 62.8134 94.5305 61.4149 95.929C61.0398 96.3042 60.5309 96.5149 60.0004 96.5149C59.4699 96.5149 58.9611 96.3042 58.5859 95.929C58.2108 95.5539 58 95.045 58 94.5145C58 93.984 58.2108 93.4752 58.5859 93.1C60.5439 91.1422 63.0385 89.809 65.7542 89.2689C68.4698 88.7288 71.2847 89.0062 73.8428 90.0658C76.4009 91.1255 78.5873 92.9199 80.1256 95.2222C81.6638 97.5244 82.4849 100.231 82.4849 103C82.4849 105.769 81.6638 108.476 80.1256 110.778C78.5873 113.08 76.4009 114.875 73.8428 115.934C71.2847 116.994 68.4698 117.271 65.7542 116.731C63.0385 116.191 60.5439 114.858 58.5859 112.9C58.4001 112.714 58.2528 112.494 58.1523 112.251C58.0517 112.008 58 111.748 58 111.486C58 111.223 58.0517 110.963 58.1523 110.72C58.2528 110.477 58.4001 110.257 58.5859 110.071C58.7717 109.885 58.9922 109.738 59.2349 109.637C59.4776 109.537 59.7377 109.485 60.0004 109.485C60.2631 109.485 60.5232 109.537 60.7659 109.637C61.0086 109.738 61.2292 109.885 61.4149 110.071Z" fill="white"/>
</svg>
